<?xml version="1.0" encoding="utf-8"?>
<!-- Generator: Adobe Illustrator 19.0.0, SVG Export Plug-In . SVG Version: 6.00 Build 0)  -->
<svg version="1.0" id="Calque_1" xmlns="http://www.w3.org/2000/svg" xmlns:xlink="http://www.w3.org/1999/xlink" x="0px" y="0px"
	 viewBox="0 0 40 40" style="enable-background:new 0 0 40 40;" xml:space="preserve">
<style type="text/css">
	.st0{display:none;}
	.st1{display:inline;}
	.st2{display:inline;fill:none;stroke:#000000;stroke-linecap:round;stroke-linejoin:round;stroke-miterlimit:10;}
	.st3{display:inline;stroke:#000000;stroke-miterlimit:10;}
	.st4{display:inline;fill:none;stroke:#000000;stroke-width:0;stroke-linecap:round;stroke-linejoin:round;}
	.st5{display:inline;opacity:0.57;stroke:#000000;stroke-width:0;stroke-linecap:round;stroke-linejoin:round;}
	.st6{display:inline;fill:#FFFFFF;}
	.st7{fill:#FFFFFF;}
	.st8{fill:none;}
	.st9{stroke:#000000;stroke-miterlimit:10;}
	.st10{fill:none;stroke:#000000;stroke-miterlimit:10;}
	.st11{fill:none;stroke:#000000;stroke-linecap:round;stroke-linejoin:round;stroke-miterlimit:10;}
	.st12{fill:#FFFFFF;stroke:#000000;stroke-miterlimit:10;}
</style>
<g id="XMLID_5_" class="st0">
	<path id="XMLID_22_" class="st1" d="M0,0v40h40V0H0z M15.3,37.9L15.3,37.9C7.9,36.5,3,29.5,4.3,22.1c0.9-4.9,4.3-8.7,8.7-10.3
		l0-0.1c0-0.2,0-0.3,0-0.5c0-2.8,1.7-5.3,4.1-6.3c0,0,0-0.1,0-0.1c0-1-0.4-1.7-0.9-2c-0.2-0.1-0.5-0.2-0.7,0c-0.2,0.1-0.5,0-0.7-0.2
		c-0.1-0.2,0-0.5,0.2-0.7c0.5-0.3,1.2-0.3,1.7,0.1c0.8,0.5,1.3,1.5,1.4,2.6c0.6-0.2,1.2-0.3,1.9-0.3s1.3,0.1,1.9,0.3
		c0.1-1.1,0.6-2.1,1.4-2.6c0.5-0.3,1.2-0.3,1.7-0.1c0.2,0.1,0.3,0.4,0.2,0.7c-0.1,0.2-0.4,0.3-0.7,0.2c-0.2-0.1-0.5-0.1-0.7,0
		c-0.4,0.3-0.9,1-0.9,2c0,0,0,0.1,0,0.1c2.4,1.1,4.1,3.5,4.1,6.4c0,0.1,0,0.3,0,0.4l0,0.2c4.5,1.6,8,5.4,8.8,10.4
		c1.3,7.3-3.7,14.4-11,15.7"/>
	<path id="XMLID_37_" class="st2" d="M22.3,4.7c0-1.8,1.3-3,2.3-2.4"/>
	<path id="XMLID_36_" class="st2" d="M17.6,4.7c0-1.8-1.3-3-2.3-2.4"/>
	<path id="XMLID_35_" class="st3" d="M20,11.2c2.2-0.4,4.4-0.2,6.4,0.4c0-0.1,0-0.3,0-0.4c0-3.6-2.9-6.5-6.5-6.5s-6.5,2.9-6.5,6.5
		c0,0.2,0,0.3,0,0.5C15.5,11,17.8,10.8,20,11.2z"/>
	<path id="XMLID_34_" class="st4" d="M20,11.6l4.7,26.3c7.3-1.3,12.3-8.4,11-15.7c-0.9-5.1-4.7-9.1-9.3-10.6"/>
	<path id="XMLID_32_" class="st4" d="M13.5,11.6c-4.6,1.5-8.3,5.4-9.2,10.5c-1.3,7.3,3.6,14.4,11,15.7h0L20,11.6"/>
	<path id="XMLID_1_" class="st5" d="M24.3,36.6c-1.3,0.5-2.8,0.8-4.3,0.8c-1.5,0-3-0.3-4.4-0.8l4.3-25L24.3,36.6z"/>
	<path id="XMLID_2_" class="st4" d="M24.3,36.6c-1.3,0.5-2.8,0.8-4.3,0.8c-1.5,0-3-0.3-4.4-0.8l4.3-25L24.3,36.6z"/>
	
		<ellipse id="XMLID_29_" transform="matrix(0.4897 -0.8719 0.8719 0.4897 5.0835 23.1065)" class="st6" cx="22.3" cy="7.2" rx="0.9" ry="1.3"/>
	<circle id="XMLID_47_" class="st1" cx="23.7" cy="15.4" r="1.3"/>
	<circle id="XMLID_46_" class="st1" cx="29.3" cy="20.1" r="1.5"/>
	<circle id="XMLID_45_" class="st1" cx="25.6" cy="26" r="2"/>
	<circle id="XMLID_44_" class="st1" cx="30.3" cy="30.8" r="1.4"/>
	<circle id="XMLID_42_" class="st1" cx="16" cy="15.4" r="1.3"/>
	<circle id="XMLID_41_" class="st1" cx="10.5" cy="20.1" r="1.5"/>
	<circle id="XMLID_40_" class="st1" cx="14.2" cy="26" r="2"/>
	<circle id="XMLID_39_" class="st1" cx="9.5" cy="30.8" r="1.4"/>
</g>
<g id="cocci" class="st0">
	<path id="XMLID_73_" class="st1" d="M26.8,12.4c0.1-0.4,0.1-0.9,0.1-1.3c0-2.8-1.7-5.3-4.1-6.3c0,0,0-0.1,0-0.1c0-1,0.4-1.7,0.9-2
		c0.2-0.1,0.5-0.2,0.7,0c0.2,0.1,0.5,0,0.7-0.2c0.1-0.2,0-0.5-0.2-0.7c-0.5-0.3-1.2-0.3-1.7,0.1c-0.8,0.5-1.3,1.5-1.4,2.6
		c-0.6-0.2-1.2-0.3-1.9-0.3c-0.6,0-1.3,0.1-1.9,0.3c-0.1-1.1-0.6-2.1-1.4-2.6c-0.5-0.3-1.2-0.3-1.7-0.1c-0.2,0.1-0.3,0.4-0.2,0.7
		c0.1,0.2,0.4,0.3,0.7,0.2c0.2-0.1,0.5-0.1,0.7,0c0.4,0.3,0.9,1,0.9,2c0,0,0,0.1,0,0.1C14.7,5.8,13,8.3,13,11.1
		c0,0.4,0.1,0.9,0.1,1.3C8.7,14.9,6,19.5,6,24.6c0,7.7,6.3,14,14,14c7.7,0,14-6.3,14-14C34,19.5,31.3,14.9,26.8,12.4z M7,24.6
		c0-4.8,2.7-9.3,7-11.5c1.7-0.9,3.6-1.4,5.5-1.5v26c-2.5-0.1-4.9-0.9-6.9-2.3c0.5-0.2,0.9-0.7,0.9-1.3c0-0.8-0.6-1.4-1.4-1.4
		c-0.7,0-1.3,0.5-1.4,1.2C8.4,31.5,7,28.2,7,24.6z M29.2,33.9c-0.1-0.7-0.7-1.2-1.4-1.2c-0.8,0-1.4,0.6-1.4,1.4
		c0,0.6,0.4,1.1,0.9,1.3c-2,1.4-4.3,2.2-6.9,2.3v-26c1.9,0.1,3.8,0.5,5.5,1.5l0,0c4.3,2.3,7,6.7,7,11.5C33,28.2,31.6,31.5,29.2,33.9
		z"/>
	<circle id="XMLID_75_" class="st1" cx="24.1" cy="17.8" r="1.3"/>
	<circle id="XMLID_76_" class="st1" cx="28.7" cy="23.4" r="1.5"/>
	<circle id="XMLID_77_" class="st1" cx="24.1" cy="28.5" r="2"/>
	<circle id="XMLID_78_" class="st1" cx="15.9" cy="17.8" r="1.3"/>
	<circle id="XMLID_79_" class="st1" cx="11.3" cy="23.4" r="1.5"/>
	<circle id="XMLID_80_" class="st1" cx="15.9" cy="28.5" r="2"/>
</g>
<path id="XMLID_12_" class="st7" d="M0,0v40h40V0H0z M20,38.7c-7.7,0-14-6.3-14-14c0-5.1,2.8-9.7,7.2-12.2c-0.1-0.4-0.1-0.9-0.1-1.3
	c0-2.8,1.7-5.3,4.1-6.3c0,0,0-0.1,0-0.1c0-1-0.4-1.7-0.9-2c-0.2-0.1-0.5-0.2-0.7,0c-0.2,0.1-0.5,0-0.7-0.2c-0.1-0.2,0-0.5,0.2-0.7
	c0.5-0.3,1.2-0.3,1.7,0.1c0.8,0.5,1.3,1.5,1.4,2.6c0.6-0.2,1.2-0.3,1.9-0.3c0.6,0,1.3,0.1,1.9,0.3c0.1-1.1,0.6-2.1,1.4-2.6
	c0.5-0.3,1.2-0.3,1.7-0.1c0.2,0.1,0.3,0.4,0.2,0.7c-0.1,0.2-0.4,0.3-0.7,0.2c-0.2-0.1-0.5-0.1-0.7,0c-0.4,0.3-0.9,1-0.9,2
	c0,0,0,0.1,0,0.1c2.4,1.1,4.1,3.5,4.1,6.3c0,0.4-0.1,0.9-0.1,1.3c4.5,2.5,7.2,7.2,7.2,12.2C34,32.4,27.7,38.7,20,38.7z"/>
<g id="XMLID_21_">
	<g id="XMLID_52_">
		
			<ellipse id="XMLID_58_" transform="matrix(-0.4897 0.8719 -0.8719 -0.4897 38.8239 -10.0548)" class="st8" cx="22.4" cy="6.3" rx="0.9" ry="1.3"/>
		<path id="XMLID_55_" class="st9" d="M26.3,12.6c0.1-0.5,0.2-1,0.2-1.6c0-3.6-2.9-6.5-6.5-6.5s-6.5,2.9-6.5,6.5
			c0,0.5,0.1,1.1,0.2,1.6c1.9-1,4-1.6,6.3-1.6S24.4,11.7,26.3,12.6z M21.3,5.7c0.2-0.4,0.9-0.5,1.5-0.2c0.6,0.3,0.9,1,0.7,1.4
			c-0.2,0.4-0.9,0.5-1.5,0.2C21.3,6.8,21,6.1,21.3,5.7z"/>
		<path id="XMLID_54_" class="st10" d="M20,17.5"/>
		<path id="XMLID_53_" class="st10" d="M13.7,12.6c-4.3,2.3-7.3,6.8-7.3,12c0,7.4,6.1,13.5,13.5,13.5s13.5-6.1,13.5-13.5
			c0-5.2-3-9.7-7.3-12"/>
	</g>
	<path id="XMLID_51_" class="st11" d="M22.4,4.6c0-1.8,1.3-3,2.3-2.4"/>
	<path id="XMLID_48_" class="st11" d="M17.6,4.6c0-1.8-1.3-3-2.3-2.4"/>
	<line id="XMLID_43_" class="st12" x1="20" y1="11.1" x2="20" y2="38.2"/>
	<g id="XMLID_28_">
		<circle id="XMLID_38_" cx="24.1" cy="17.8" r="1.3"/>
		<circle id="XMLID_33_" cx="28.7" cy="23.4" r="1.5"/>
		<circle id="XMLID_31_" cx="24.1" cy="28.5" r="2"/>
		<circle id="XMLID_30_" cx="27.8" cy="34.1" r="1.4"/>
	</g>
	<g id="XMLID_23_">
		<circle id="XMLID_27_" cx="15.9" cy="17.8" r="1.3"/>
		<circle id="XMLID_26_" cx="11.3" cy="23.4" r="1.5"/>
		<circle id="XMLID_25_" cx="15.9" cy="28.5" r="2"/>
		<circle id="XMLID_24_" cx="12.2" cy="34.1" r="1.4"/>
	</g>
</g>
</svg>
