<?xml version="1.0" encoding="utf-8"?>
<svg version="1.0" id="Calque_1" xmlns="http://www.w3.org/2000/svg" xmlns:xlink="http://www.w3.org/1999/xlink" x="0px" y="0px"
	 viewBox="-59 6 40 40" style="enable-background:new -59 6 40 40;" xml:space="preserve">
<style type="text/css">
	.st0{display:none;}
	.st1{display:inline;}
	.st2{display:inline;fill:none;stroke:#000000;stroke-linecap:round;stroke-linejoin:round;stroke-miterlimit:10;}
	.st3{display:inline;stroke:#000000;stroke-miterlimit:10;}
	.st4{display:inline;fill:none;}
	.st5{display:inline;opacity:0.57;enable-background:new    ;}
	.st6{display:inline;fill:#FFFFFF;}
	.st7{fill:none;}
	.st8{stroke:#000000;stroke-miterlimit:10;}
	.st9{fill:none;stroke:#000000;stroke-miterlimit:10;}
	.st10{display:inline;fill:none;stroke:#000000;stroke-miterlimit:10;}
	.st11{fill:none;stroke:#000000;stroke-linecap:round;stroke-linejoin:round;stroke-miterlimit:10;}
	.st12{fill:#FFFFFF;stroke:#000000;stroke-miterlimit:10;}
</style>
<g id="XMLID_5_" class="st0">
	<path id="XMLID_22_" class="st1" d="M-59,6v40h40V6H-59z M-43.7,43.9L-43.7,43.9c-7.4-1.4-12.3-8.4-11-15.8
		c0.9-4.9,4.3-8.7,8.7-10.3v-0.1c0-0.2,0-0.3,0-0.5c0-2.8,1.7-5.3,4.1-6.3v-0.1c0-1-0.4-1.7-0.9-2c-0.2-0.1-0.5-0.2-0.7,0
		c-0.2,0.1-0.5,0-0.7-0.2c-0.1-0.2,0-0.5,0.2-0.7c0.5-0.3,1.2-0.3,1.7,0.1c0.8,0.5,1.3,1.5,1.4,2.6c0.6-0.2,1.2-0.3,1.9-0.3
		s1.3,0.1,1.9,0.3c0.1-1.1,0.6-2.1,1.4-2.6c0.5-0.3,1.2-0.3,1.7-0.1c0.2,0.1,0.3,0.4,0.2,0.7c-0.1,0.2-0.4,0.3-0.7,0.2
		c-0.2-0.1-0.5-0.1-0.7,0c-0.4,0.3-0.9,1-0.9,2v0.1c2.4,1.1,4.1,3.5,4.1,6.4c0,0.1,0,0.3,0,0.4v0.2c4.5,1.6,8,5.4,8.8,10.4
		c1.3,7.3-3.7,14.4-11,15.7"/>
	<path id="XMLID_37_" class="st2" d="M-36.7,10.7c0-1.8,1.3-3,2.3-2.4"/>
	<path id="XMLID_36_" class="st2" d="M-41.4,10.7c0-1.8-1.3-3-2.3-2.4"/>
	<path id="XMLID_35_" class="st3" d="M-39,17.2c2.2-0.4,4.4-0.2,6.4,0.4c0-0.1,0-0.3,0-0.4c0-3.6-2.9-6.5-6.5-6.5
		c-3.6,0-6.5,2.9-6.5,6.5c0,0.2,0,0.3,0,0.5C-43.5,17-41.2,16.8-39,17.2z"/>
	<path id="XMLID_34_" class="st4" d="M-39,17.6l4.7,26.3c7.3-1.3,12.3-8.4,11-15.7c-0.9-5.1-4.7-9.1-9.3-10.6"/>
	<path id="XMLID_32_" class="st4" d="M-45.5,17.6c-4.6,1.5-8.3,5.4-9.2,10.5c-1.3,7.3,3.6,14.4,11,15.7l0,0l4.7-26.2"/>
	<path id="XMLID_1_" class="st5" d="M-34.7,42.6c-1.3,0.5-2.8,0.8-4.3,0.8s-3-0.3-4.4-0.8l4.3-25L-34.7,42.6z"/>
	<path id="XMLID_2_" class="st4" d="M-34.7,42.6c-1.3,0.5-2.8,0.8-4.3,0.8s-3-0.3-4.4-0.8l4.3-25L-34.7,42.6z"/>
	
		<ellipse id="XMLID_29_" transform="matrix(-0.4897 0.8719 -0.8719 -0.4897 -43.2326 51.6435)" class="st6" cx="-36.7" cy="13.2" rx="0.9" ry="1.3"/>
	<circle id="XMLID_47_" class="st1" cx="-35.3" cy="21.4" r="1.3"/>
	<circle id="XMLID_46_" class="st1" cx="-29.7" cy="26.1" r="1.5"/>
	<circle id="XMLID_45_" class="st1" cx="-33.4" cy="32" r="2"/>
	<circle id="XMLID_44_" class="st1" cx="-28.7" cy="36.8" r="1.4"/>
	<circle id="XMLID_42_" class="st1" cx="-43" cy="21.4" r="1.3"/>
	<circle id="XMLID_41_" class="st1" cx="-48.5" cy="26.1" r="1.5"/>
	<circle id="XMLID_40_" class="st1" cx="-44.8" cy="32" r="2"/>
	<circle id="XMLID_39_" class="st1" cx="-49.5" cy="36.8" r="1.4"/>
</g>
<g id="cocci" class="st0">
	<path id="XMLID_73_" class="st1" d="M-32.2,18.4c0.1-0.4,0.1-0.9,0.1-1.3c0-2.8-1.7-5.3-4.1-6.3v-0.1c0-1,0.4-1.7,0.9-2
		c0.2-0.1,0.5-0.2,0.7,0c0.2,0.1,0.5,0,0.7-0.2c0.1-0.2,0-0.5-0.2-0.7c-0.5-0.3-1.2-0.3-1.7,0.1c-0.8,0.5-1.3,1.5-1.4,2.6
		c-0.6-0.2-1.2-0.3-1.9-0.3c-0.6,0-1.3,0.1-1.9,0.3c-0.1-1.1-0.6-2.1-1.4-2.6c-0.5-0.3-1.2-0.3-1.7-0.1c-0.2,0.1-0.3,0.4-0.2,0.7
		c0.1,0.2,0.4,0.3,0.7,0.2c0.2-0.1,0.5-0.1,0.7,0c0.4,0.3,0.9,1,0.9,2v0.1c-2.3,1-4,3.5-4,6.3c0,0.4,0.1,0.9,0.1,1.3
		c-4.4,2.5-7.1,7.1-7.1,12.2c0,7.7,6.3,14,14,14s14-6.3,14-14C-25,25.5-27.7,20.9-32.2,18.4z M-52,30.6c0-4.8,2.7-9.3,7-11.5
		c1.7-0.9,3.6-1.4,5.5-1.5v26c-2.5-0.1-4.9-0.9-6.9-2.3c0.5-0.2,0.9-0.7,0.9-1.3c0-0.8-0.6-1.4-1.4-1.4c-0.7,0-1.3,0.5-1.4,1.2
		C-50.6,37.5-52,34.2-52,30.6z M-29.8,39.9c-0.1-0.7-0.7-1.2-1.4-1.2c-0.8,0-1.4,0.6-1.4,1.4c0,0.6,0.4,1.1,0.9,1.3
		c-2,1.4-4.3,2.2-6.9,2.3v-26c1.9,0.1,3.8,0.5,5.5,1.5l0,0c4.3,2.3,7,6.7,7,11.5C-26,34.2-27.4,37.5-29.8,39.9z"/>
	<circle id="XMLID_75_" class="st1" cx="-34.9" cy="23.8" r="1.3"/>
	<circle id="XMLID_76_" class="st1" cx="-30.3" cy="29.4" r="1.5"/>
	<circle id="XMLID_77_" class="st1" cx="-34.9" cy="34.5" r="2"/>
	<circle id="XMLID_78_" class="st1" cx="-43.1" cy="23.8" r="1.3"/>
	<circle id="XMLID_79_" class="st1" cx="-47.7" cy="29.4" r="1.5"/>
	<circle id="XMLID_80_" class="st1" cx="-43.1" cy="34.5" r="2"/>
</g>
<g id="black" class="st0">
	<path id="w" class="st6" d="M-59,6v40h40V6H-59z M-39,44.7c-7.7,0-14-6.3-14-14c0-5.1,2.8-9.7,7.2-12.2c-0.1-0.4-0.1-0.9-0.1-1.3
		c0-2.8,1.7-5.3,4.1-6.3v-0.1c0-1-0.4-1.7-0.9-2c-0.2-0.1-0.5-0.2-0.7,0c-0.2,0.1-0.5,0-0.7-0.2c-0.1-0.2,0-0.5,0.2-0.7
		c0.5-0.3,1.2-0.3,1.7,0.1c0.8,0.5,1.3,1.5,1.4,2.6c0.6-0.2,1.2-0.3,1.9-0.3c0.6,0,1.3,0.1,1.9,0.3c0.1-1.1,0.6-2.1,1.4-2.6
		c0.5-0.3,1.2-0.3,1.7-0.1c0.2,0.1,0.3,0.4,0.2,0.7c-0.1,0.2-0.4,0.3-0.7,0.2c-0.2-0.1-0.5-0.1-0.7,0c-0.4,0.3-0.9,1-0.9,2v0.1
		c2.4,1.1,4.1,3.5,4.1,6.3c0,0.4-0.1,0.9-0.1,1.3c4.5,2.5,7.2,7.2,7.2,12.2C-25,38.4-31.3,44.7-39,44.7z"/>
	<g id="XMLID_52_" class="st1">
		
			<ellipse id="XMLID_58_" transform="matrix(0.4897 -0.8719 0.8719 0.4897 -29.5088 -25.5826)" class="st7" cx="-36.6" cy="12.4" rx="0.9" ry="1.3"/>
		<path id="XMLID_55_" class="st8" d="M-32.7,18.6c0.1-0.5,0.2-1,0.2-1.6c0-3.6-2.9-6.5-6.5-6.5s-6.5,2.9-6.5,6.5
			c0,0.5,0.1,1.1,0.2,1.6c1.9-1,4-1.6,6.3-1.6S-34.6,17.7-32.7,18.6z M-38.3,11.5c0.4-0.5,1.5-0.5,2.4,0c0.9,0.4,1.3,1.2,0.9,1.7
			s-1.5,0.5-2.4,0C-38.3,12.7-38.7,12-38.3,11.5z"/>
		<path id="XMLID_54_" class="st9" d="M-39,23.5"/>
		<path id="XMLID_53_" class="st9" d="M-45.3,18.6c-4.3,2.3-7.3,6.8-7.3,12c0,7.4,6.1,13.5,13.5,13.5s13.5-6.1,13.5-13.5
			c0-5.2-3-9.7-7.3-12"/>
	</g>
	<path id="XMLID_51_" class="st2" d="M-36.6,10.6c0-1.8,1.3-3,2.3-2.4"/>
	<path id="XMLID_48_" class="st2" d="M-41.4,10.6c0-1.8-1.3-3-2.3-2.4"/>
	<line id="XMLID_43_" class="st10" x1="-39" y1="17.1" x2="-39" y2="44.2"/>
	<g id="XMLID_28_" class="st1">
		<circle id="XMLID_38_" cx="-33.9" cy="23.8" r="1.3"/>
		<circle id="XMLID_33_" cx="-30.3" cy="29.4" r="1.5"/>
		<circle id="XMLID_31_" cx="-33.9" cy="34.5" r="2"/>
		<circle id="XMLID_30_" cx="-31.2" cy="40.1" r="1.4"/>
	</g>
	<g id="XMLID_23_" class="st1">
		<circle id="XMLID_27_" cx="-44.1" cy="23.8" r="1.3"/>
		<circle id="XMLID_26_" cx="-47.7" cy="29.4" r="1.5"/>
		<circle id="XMLID_25_" cx="-44.1" cy="34.5" r="2"/>
		<circle id="XMLID_24_" cx="-46.8" cy="40.1" r="1.4"/>
	</g>
</g>
<g id="XMLID_49_">
	<g id="XMLID_6_">
		
			<ellipse id="XMLID_7_" transform="matrix(-0.4897 0.8719 -0.8719 -0.4897 -43.9263 50.1763)" class="st7" cx="-36.6" cy="12.2" rx="0.9" ry="1.3"/>
		<path id="XMLID_72_" class="st8" d="M-32.7,18.5c0.1-0.5,0.2-1,0.2-1.6c0-3.6-2.9-6.5-6.5-6.5s-6.5,2.9-6.5,6.5
			c0,0.5,0.1,1.1,0.2,1.6c1.9-1,4-1.6,6.3-1.6S-34.6,17.6-32.7,18.5z M-37.7,11.6c0.2-0.4,0.9-0.5,1.5-0.2c0.6,0.3,0.9,1,0.7,1.4
			c-0.2,0.4-0.9,0.5-1.5,0.2C-37.7,12.7-38,12-37.7,11.6z"/>
		<path id="XMLID_69_" class="st9" d="M-39,23.4"/>
		<path id="XMLID_68_" class="st9" d="M-45.3,18.5c-4.3,2.3-7.3,6.8-7.3,12c0,7.4,6.1,13.5,13.5,13.5s13.5-6.1,13.5-13.5
			c0-5.2-3-9.7-7.3-12"/>
	</g>
	<path id="XMLID_9_" class="st11" d="M-36.6,10.5c0-1.8,1.3-3,2.3-2.4"/>
	<path id="XMLID_8_" class="st11" d="M-41.4,10.5c0-1.8-1.3-3-2.3-2.4"/>
	<line id="XMLID_11_" class="st12" x1="-39" y1="17" x2="-39" y2="44.1"/>
	<g id="XMLID_10_">
		<circle id="XMLID_12_" cx="-34.9" cy="23.7" r="1.3"/>
		<circle id="XMLID_13_" cx="-30.3" cy="29.3" r="1.5"/>
		<circle id="XMLID_14_" cx="-34.9" cy="34.4" r="2"/>
		<circle id="XMLID_15_" cx="-31.2" cy="40" r="1.4"/>
	</g>
	<g id="XMLID_16_">
		<circle id="XMLID_20_" cx="-43.1" cy="23.7" r="1.3"/>
		<circle id="XMLID_19_" cx="-47.7" cy="29.3" r="1.5"/>
		<circle id="XMLID_18_" cx="-43.1" cy="34.4" r="2"/>
		<circle id="XMLID_17_" cx="-46.8" cy="40" r="1.4"/>
	</g>
</g>
</svg>
