<?xml version="1.0" encoding="utf-8"?>
<!-- Generator: Adobe Illustrator 19.0.0, SVG Export Plug-In . SVG Version: 6.00 Build 0)  -->
<svg version="1.0" id="Calque_1" xmlns="http://www.w3.org/2000/svg" xmlns:xlink="http://www.w3.org/1999/xlink" x="0px" y="0px"
	 viewBox="-59 6 40 40" style="enable-background:new -59 6 40 40;" xml:space="preserve">
<style type="text/css">
	.st0{display:none;}
	.st1{display:inline;}
	.st2{fill:none;}
	.st3{stroke:#000000;stroke-miterlimit:10;}
	.st4{fill:none;stroke:#000000;stroke-miterlimit:10;}
	.st5{display:inline;fill:none;stroke:#000000;stroke-linecap:round;stroke-linejoin:round;stroke-miterlimit:10;}
	.st6{display:inline;fill:#FFFFFF;stroke:#000000;stroke-miterlimit:10;}
	.st7{fill:#FFFFFF;}
	.st8{stroke:#FFFFFF;stroke-miterlimit:10;}
	.st9{fill:none;stroke:#FFFFFF;stroke-miterlimit:10;}
	.st10{fill:none;stroke:#FFFFFF;stroke-linecap:round;stroke-linejoin:round;stroke-miterlimit:10;}
	.st11{fill:#FFFFFF;stroke:#FFFFFF;stroke-miterlimit:10;}
</style>
<g id="black" class="st0">
	<g id="XMLID_6_" class="st1">
		
			<ellipse id="XMLID_7_" transform="matrix(-0.4897 0.8719 -0.8719 -0.4897 -43.9263 50.1763)" class="st2" cx="-36.6" cy="12.2" rx="0.9" ry="1.3"/>
		<path id="XMLID_72_" class="st3" d="M-32.7,18.5c0.1-0.5,0.2-1,0.2-1.6c0-3.6-2.9-6.5-6.5-6.5s-6.5,2.9-6.5,6.5
			c0,0.5,0.1,1.1,0.2,1.6c1.9-1,4-1.6,6.3-1.6S-34.6,17.6-32.7,18.5z M-37.7,11.6c0.2-0.4,0.9-0.5,1.5-0.2c0.6,0.3,0.9,1,0.7,1.4
			c-0.2,0.4-0.9,0.5-1.5,0.2C-37.7,12.7-38,12-37.7,11.6z"/>
		<path id="XMLID_69_" class="st4" d="M-39,23.4"/>
		<path id="XMLID_68_" class="st4" d="M-45.3,18.5c-4.3,2.3-7.3,6.8-7.3,12c0,7.4,6.1,13.5,13.5,13.5s13.5-6.1,13.5-13.5
			c0-5.2-3-9.7-7.3-12"/>
	</g>
	<path id="XMLID_9_" class="st5" d="M-36.6,10.5c0-1.8,1.3-3,2.3-2.4"/>
	<path id="XMLID_8_" class="st5" d="M-41.4,10.5c0-1.8-1.3-3-2.3-2.4"/>
	<line id="XMLID_11_" class="st6" x1="-39" y1="17" x2="-39" y2="44.1"/>
	<g id="XMLID_10_" class="st1">
		<circle id="XMLID_12_" cx="-34.9" cy="23.7" r="1.3"/>
		<circle id="XMLID_13_" cx="-30.3" cy="29.3" r="1.5"/>
		<circle id="XMLID_14_" cx="-34.9" cy="34.4" r="2"/>
		<circle id="XMLID_15_" cx="-31.2" cy="40" r="1.4"/>
	</g>
	<g id="XMLID_16_" class="st1">
		<circle id="XMLID_20_" cx="-43.1" cy="23.7" r="1.3"/>
		<circle id="XMLID_19_" cx="-47.7" cy="29.3" r="1.5"/>
		<circle id="XMLID_18_" cx="-43.1" cy="34.4" r="2"/>
		<circle id="XMLID_17_" cx="-46.8" cy="40" r="1.4"/>
	</g>
</g>
<g id="white">
	<g id="XMLID_88_">
		
			<ellipse id="XMLID_94_" transform="matrix(0.4897 -0.8719 0.8719 0.4897 -29.3515 -25.5576)" class="st7" cx="-36.5" cy="12.3" rx="0.9" ry="1.3"/>
		<path id="XMLID_91_" class="st8" d="M-32.6,18.5c0.1-0.5,0.2-1,0.2-1.6c0-3.6-2.9-6.5-6.5-6.5c-3.6,0-6.5,2.9-6.5,6.5
			c0,0.5,0.1,1.1,0.2,1.6c1.9-1,4-1.6,6.3-1.6S-34.5,17.6-32.6,18.5z"/>
		<path id="XMLID_90_" class="st4" d="M-38.9,23.4"/>
		<path id="XMLID_89_" class="st9" d="M-45.2,18.5c-4.3,2.3-7.3,6.8-7.3,12c0,7.4,6.1,13.5,13.5,13.5s13.5-6.1,13.5-13.5
			c0-5.2-3-9.7-7.3-12"/>
	</g>
	<path id="XMLID_87_" class="st10" d="M-36.5,10.5c0-1.8,1.3-3,2.3-2.4"/>
	<path id="XMLID_86_" class="st10" d="M-41.3,10.5c0-1.8-1.3-3-2.3-2.4"/>
	<line id="XMLID_85_" class="st9" x1="-38.9" y1="17" x2="-38.9" y2="44.1"/>
	<g id="XMLID_70_">
		<circle id="XMLID_84_" class="st11" cx="-33.8" cy="23.7" r="1.3"/>
		<circle id="XMLID_83_" class="st11" cx="-30.2" cy="29.3" r="1.5"/>
		<circle id="XMLID_82_" class="st11" cx="-33.8" cy="34.4" r="2"/>
		<circle id="XMLID_81_" class="st11" cx="-31.1" cy="40" r="1.4"/>
	</g>
	<g id="XMLID_21_">
		<circle id="XMLID_4_" class="st11" cx="-44" cy="23.7" r="1.3"/>
		<circle id="XMLID_3_" class="st11" cx="-47.6" cy="29.3" r="1.5"/>
		<circle id="XMLID_67_" class="st11" cx="-44" cy="34.4" r="2"/>
		<circle id="XMLID_66_" class="st11" cx="-46.7" cy="40" r="1.4"/>
	</g>
	<path id="XMLID_92_" class="st7" d="M-37.9,12.1c0.3-0.4,1.2-0.4,2,0c0.8,0.4,1.1,1.1,0.8,1.5s-1.2,0.4-2,0S-38.3,12.5-37.9,12.1z"
		/>
</g>
</svg>
